<svg id="Group_7" data-name="Group 7" xmlns="http://www.w3.org/2000/svg" width="143.932" height="134.146" viewBox="0 0 143.932 134.146">
  <g id="Group_5" data-name="Group 5">
    <g id="Group_3" data-name="Group 3">
      <path id="Path_20" data-name="Path 20" d="M413.208,1532.311v22.915l-43.92,44.636,43.92,43.2v23.392L345.9,1599.384Z" transform="translate(-345.897 -1532.311)" fill="#d5af2a"/>
    </g>
    <g id="Group_4" data-name="Group 4" transform="translate(75.905)">
      <path id="Path_21" data-name="Path 21" d="M390.576,1560.239v-27.927l68.028,67.073-68.028,67.073v-21.721l45.988-45.352-5.013-5.013-15.992,15.992v-32.3l-7.8-7.8-.637,6.843Z" transform="translate(-390.576 -1532.311)" fill="#d5af2a"/>
    </g>
  </g>
  <g id="Group_6" data-name="Group 6" transform="translate(35.327 30.314)">
    <path id="Path_22" data-name="Path 22" d="M403.291,1550.155l20.13,20.13v8.513H407.269l-3.978-4.773-13.367,12.889,12.889,13.526,5.729-5.092H423.42v8.434l-19.652,20.209-37.077-36.918Z" transform="translate(-366.691 -1550.155)" fill="#d5af2a"/>
  </g>
</svg>
